<?xml version="1.0" encoding="UTF-8"?>
<svg version="1.1" viewBox="0 0 2000 868" width="1280" height="1280" xmlns="http://www.w3.org/2000/svg">
<path transform="translate(194,363)" d="m0 0h256l14 1 11 3 11 8 8 11 4 11v281l-4 11-6 9-8 7-11 5-4 1-15 1h-255l-15-2-12-6-8-8-5-8-3-10v-282l3-8 6-10 9-8 10-5zm35 64-7 2-6 7-1 2v180l4 6 4 3 4 1h62l8-4 3-5v-182l-5-7-3-2-7-1zm134 0-7 2-5 4-2 4v103l3 5 5 3 6 1h58l7-2 5-6 1-3v-99l-3-6-6-5-8-1z" fill="#0E63DF"/>
<path transform="translate(1746,456)" d="m0 0h31l19 3 18 6 15 8 13 10 11 11 10 14 8 16 5 15 3 12 2 14 1 17v13l-2 19-3 15-7 21-7 14-9 13-13 14-16 11-14 7-20 6-12 2-23 1-19-2-16-4-13-5-12-6-11-8-12-11-11-14-8-14-6-15-5-19-2-13-1-15v-12l2-23 5-21 8-20 8-13 11-14 11-10 14-9 15-7 13-4zm9 63-12 3-8 4-10 9-6 9-5 11-3 12-1 7v25l3 16 5 13 7 10 9 8 10 5 8 2h20l14-5 10-8 8-11 5-14 3-17v-23l-3-17-4-11-6-10-7-8-10-6-9-3-7-1z" fill="#26395A"/>
<path transform="translate(1183,455)" d="m0 0h20l19 3 18 6 14 7 12 9 8 7 10 13 8 16 4 13 1 7v17l-3 15-7 14-9 10-11 7-11 5-18 5-12 2-11 1h-47l-26-2-5-1 8 19 6 9 5 5 9 6 13 5 19 3h19l19-2 24-5 25-7 4-1v60l-10 4-22 6-24 4-13 1h-26l-23-2-25-6-15-6-15-8-11-9-10-10-9-13-9-19-5-18-3-20-1-18 2-23 5-23 8-20 8-14 10-13 11-11 15-11 21-10 15-4zm5 55-14 3-10 5-10 9-6 8-6 12-5 16-1 8 8 2 27 2 19-1 16-4 12-6 7-8 3-9v-9l-3-9-4-6-5-5-8-5-6-2z" fill="#26395A"/>
<path transform="translate(635,390)" d="m0 0h235v66h-79v255l-6 1h-67l-4-1-1-254-78-1-1-5v-60z" fill="#26395A"/>
<path transform="translate(1502,364)" d="m0 0h71l1 26v236l2 13 5 5 6 3 4 1 15 1v61l-10 2-13 2h-14l-18-3-12-4-11-6-10-9-8-13-5-13-2-10-1-10z" fill="#26395A"/>
<path transform="translate(1353,364)" d="m0 0h71l1 5v259l2 11 5 5 9 4 16 1v61l-10 2-14 2h-13l-19-3-14-5-13-9-8-9-8-16-3-10-2-18z" fill="#26395A"/>
<path transform="translate(1033,457)" d="m0 0h8l1 1v73h-14l-17 1-15 3-12 6-7 7-5 10-2 8-1 12-1 133-45 1h-21l-4-1-1-17v-231l1-2 65-1 5 1 1 44 9-17 7-9 8-8 9-6 9-4 11-3z" fill="#26395A"/>
<path transform="translate(1558,144)" d="m0 0h43l8 16 15 29 8 15 6 13v2h2l-1-3v-72h26v121l-1 1h-31l-6-9-18-34-12-22-11-23h-1v88l-2 1h-24l-1-1z" fill="#0D63DF"/>
<path transform="translate(719,144)" d="m0 0h36l2 1 10 29 30 85 2 7-1 1h-31l-4-10-3-10-12 2h-23l-10-2-6 19-1 1h-32l2-9 15-43 17-49 7-20zm17 26-7 23-7 24v5l4 1h23l3-1-2-10-11-39z" fill="#0D63DF"/>
<path transform="translate(1034,144)" d="m0 0h37l4 9 19 54 13 37 7 19v4h-32l-7-20-12 2h-22l-11-2-5 18-2 2h-31l-1-3 8-21 11-33 10-28 13-37zm18 27-3 8-9 31-3 11 5 2h23l3-1-2-10-11-39-1-2z" fill="#0D63DF"/>
<path transform="translate(1459,144)" d="m0 0h37l4 10 17 49 17 48 5 13-1 3h-31l-3-6-4-13v-2l-13 3h-21l-11-2-3 9-3 10-1 1h-28l-4-1 1-5 20-58 8-22 10-29 3-7zm17 27-3 7-8 29-4 14 4 2 14 1 13-2-2-10-10-34-2-7z" fill="#0D63DF"/>
<path transform="translate(1279,142)" d="m0 0h22l16 3 11 4 1 1 1 14v13l-2 1-13-5-17-4h-14l-7 3-2 3v6l4 4 13 5 21 7 10 6 5 4 5 9 2 6v18l-4 10-7 8-5 4-10 4-11 2h-19l-16-3-16-6-3-2v-29l13 5 16 5 12 2h12l6-3 3-5-1-5-4-4-11-4-18-5-13-7-5-4-7-11-2-9v-9l2-9 6-10 7-6 11-5z" fill="#0D63DF"/>
<path transform="translate(1167,142)" d="m0 0h23l15 3 11 4 1 1 1 28-5-1-13-5-14-3h-16l-6 3-2 3v6l4 4 13 5 21 7 10 6 5 4 4 6 3 9 1 9-2 12-5 10-8 8-12 5-10 2h-19l-16-3-16-6-2-2v-28l5 1 15 6 20 4h12l6-3 3-4-1-6-5-5-27-8-14-7-8-8-4-8-1-3v-19l4-9 5-7 9-6 10-4z" fill="#0D63DF"/>
<path transform="translate(797,144)" d="m0 0h93l1 1v25l-1 1h-33v95l-1 1h-27l-1-5v-90l-2-1h-29z" fill="#0D63DF"/>
<path transform="translate(913,144)" d="m0 0h27l1 1v95h39l-3 11-5 14-2 2h-57l-1-106v-16z" fill="#0D63DF"/>
<path transform="translate(1390,143)" d="m0 0 3 2v119l-1 1h-27l-1-1v-120z" fill="#0D63DF"/>
</svg>
